<?xml version="1.0" standalone="no"?>
<!DOCTYPE svg PUBLIC "-//W3C//DTD SVG 20010904//EN"
 "http://www.w3.org/TR/2001/REC-SVG-20010904/DTD/svg10.dtd">
<svg version="1.0" xmlns="http://www.w3.org/2000/svg"
 width="700.000000pt" height="700.000000pt" viewBox="0 0 700.000000 700.000000"
 preserveAspectRatio="xMidYMid meet">
<metadata>
Created by potrace 1.14, written by Peter Selinger 2001-2017
</metadata>
<g transform="translate(0.000000,700.000000) scale(0.100000,-0.100000)"
fill="#000000" stroke="none">
<path d="M6466 6872 c-39 -5 -99 -44 -125 -81 -12 -17 -49 -114 -82 -215 l-60
-185 -101 -56 c-55 -30 -102 -55 -104 -55 -2 0 -18 13 -37 29 -106 94 -348
182 -567 206 -87 10 -306 11 -405 2 -330 -30 -611 -122 -798 -260 -163 -121
-320 -340 -391 -544 -12 -34 -18 -39 -92 -65 -487 -174 -843 -388 -1144 -689
-233 -233 -419 -518 -541 -829 -49 -127 -114 -350 -134 -465 -13 -78 -27 -164
-31 -200 -3 -22 -7 -51 -9 -65 -24 -129 -23 -664 0 -825 2 -16 7 -52 10 -80 3
-27 8 -79 12 -115 10 -83 9 -280 -1 -345 -24 -164 -91 -330 -176 -439 -85
-110 -256 -252 -435 -363 -77 -48 -198 -106 -393 -190 -102 -44 -409 -132
-552 -158 -43 -7 -89 -15 -125 -21 -103 -16 -177 -95 -181 -193 -5 -117 47
-173 266 -285 197 -101 501 -205 670 -230 19 -2 73 -10 120 -17 95 -14 308
-17 416 -6 559 54 1073 391 1402 919 133 213 253 513 287 722 3 17 10 56 15
86 22 125 25 175 25 385 0 151 -6 267 -18 368 -25 200 -26 460 -2 597 2 14 7
45 10 69 4 23 10 54 15 67 5 13 8 24 5 24 -6 0 29 116 58 191 96 251 251 455
472 619 144 107 286 182 482 256 l97 36 55 -17 c77 -22 104 -28 206 -45 54 -8
301 -5 350 5 161 32 311 85 422 146 375 210 724 651 814 1029 20 82 22 104 22
216 l1 111 95 52 96 52 85 -27 c47 -15 132 -42 189 -61 113 -37 171 -39 227
-10 152 80 148 300 -7 370 -36 16 -194 69 -218 73 -31 6 -30 24 10 139 25 74
40 138 40 166 0 130 -109 219 -245 201z"/>
</g>
</svg>
